Urbanist-Black.ufo
<glyph name="ampersand" format="2">
	<advance width="1438"/>
	<unicode hex="0026"/>
	<outline>
		<contour>
			<point x="524" y="-26" type="curve" smooth="yes"/>
			<point x="688" y="-26"/>
			<point x="758" y="24"/>
			<point x="940" y="206" type="curve"/>
			<point x="1146" y="0" type="line"/>
			<point x="1358" y="212" type="line"/>
			<point x="1152" y="418" type="line"/>
			<point x="1210" y="476" type="line"/>
			<point x="1210" y="900" type="line"/>
			<point x="940" y="630" type="line"/>
			<point x="736" y="834" type="line"/>
			<point x="826" y="924"/>
			<point x="866" y="990"/>
			<point x="866" y="1104" type="curve" smooth="yes"/>
			<point x="866" y="1296"/>
			<point x="712" y="1446"/>
			<point x="524" y="1446" type="curve" smooth="yes"/>
			<point x="342" y="1446"/>
			<point x="184" y="1302"/>
			<point x="184" y="1104" type="curve" smooth="yes"/>
			<point x="184" y="992"/>
			<point x="220" y="926"/>
			<point x="312" y="834" type="curve"/>
			<point x="134" y="656"/>
			<point x="80" y="586"/>
			<point x="80" y="418" type="curve" smooth="yes"/>
			<point x="80" y="180"/>
			<point x="274" y="-26"/>
		</contour>
		<contour>
			<point x="524" y="274" type="curve" smooth="yes"/>
			<point x="452" y="274"/>
			<point x="380" y="332"/>
			<point x="380" y="418" type="curve" smooth="yes"/>
			<point x="380" y="490"/>
			<point x="412" y="510"/>
			<point x="524" y="622" type="curve"/>
			<point x="728" y="418" type="line"/>
			<point x="622" y="312"/>
			<point x="596" y="274"/>
		</contour>
		<contour>
			<point x="524" y="1000" type="curve"/>
			<point x="466" y="1056"/>
			<point x="444" y="1068"/>
			<point x="444" y="1110" type="curve" smooth="yes"/>
			<point x="444" y="1156"/>
			<point x="484" y="1190"/>
			<point x="524" y="1190" type="curve" smooth="yes"/>
			<point x="558" y="1190"/>
			<point x="604" y="1164"/>
			<point x="604" y="1110" type="curve" smooth="yes"/>
			<point x="604" y="1068"/>
			<point x="590" y="1064"/>
		</contour>
	</outline>
</glyph>
<glyph name="parenleft" format="2">
	<advance width="820"/>
	<unicode hex="0028"/>
	<outline>
		<contour>
			<point x="420" y="-112" type="curve"/>
			<point x="720" y="-112" type="line"/>
			<point x="588" y="40"/>
			<point x="420" y="332"/>
			<point x="420" y="644" type="curve" smooth="yes"/>
			<point x="420" y="882"/>
			<point x="598" y="1338"/>
			<point x="720" y="1400" type="curve"/>
			<point x="420" y="1400" type="line"/>
			<point x="256" y="1340"/>
			<point x="120" y="872"/>
			<point x="120" y="644" type="curve" smooth="yes"/>
			<point x="120" y="326"/>
			<point x="210" y="98"/>
		</contour>
	</outline>
</glyph>
<glyph name="plus" format="2">
	<advance width="1160"/>
	<unicode hex="002B"/>
	<outline>
		<contour>
			<point x="430" y="100" type="line"/>
			<point x="730" y="100" type="line"/>
			<point x="730" y="450" type="line"/>
			<point x="1080" y="450" type="line"/>
			<point x="1080" y="750" type="line"/>
			<point x="730" y="750" type="line"/>
			<point x="730" y="1100" type="line"/>
			<point x="430" y="1100" type="line"/>
			<point x="430" y="750" type="line"/>
			<point x="80" y="750" type="line"/>
			<point x="80" y="450" type="line"/>
			<point x="430" y="450" type="line"/>
		</contour>
	</outline>
</glyph>
<glyph name="period" format="2">
	<advance width="500"/>
	<unicode hex="002E"/>
	<outline>
		<contour>
			<point x="230" y="-26" type="curve" smooth="yes"/>
			<point x="312" y="-26"/>
			<point x="380" y="40"/>
			<point x="380" y="124" type="curve" smooth="yes"/>
			<point x="380" y="206"/>
			<point x="312" y="274"/>
			<point x="230" y="274" type="curve" smooth="yes"/>
			<point x="146" y="274"/>
			<point x="80" y="206"/>
			<point x="80" y="124" type="curve" smooth="yes"/>
			<point x="80" y="40"/>
			<point x="146" y="-26"/>
		</contour>
	</outline>
</glyph>
<glyph name="slash" format="2">
	<advance width="866"/>
	<unicode hex="002F"/>
	<outline>
		<contour>
			<point x="786" y="1400" type="line"/>
			<point x="486" y="1400" type="line"/>
			<point x="80" y="-112" type="line"/>
			<point x="380" y="-112" type="line"/>
		</contour>
	</outline>
</glyph>
<glyph name="zero" format="2">
	<advance width="1218"/>
	<unicode hex="0030"/>
	<outline>
		<contour>
			<point x="610" y="-26" type="curve" smooth="yes"/>
			<point x="930" y="-26"/>
			<point x="1158" y="300"/>
			<point x="1158" y="700" type="curve" smooth="yes"/>
			<point x="1158" y="1100"/>
			<point x="930" y="1426"/>
			<point x="610" y="1426" type="curve" smooth="yes"/>
			<point x="290" y="1426"/>
			<point x="60" y="1100"/>
			<point x="60" y="700" type="curve" smooth="yes"/>
			<point x="60" y="300"/>
			<point x="290" y="-26"/>
		</contour>
		<contour>
			<point x="610" y="274" type="curve" smooth="yes"/>
			<point x="426" y="274"/>
			<point x="340" y="484"/>
			<point x="340" y="700" type="curve" smooth="yes"/>
			<point x="340" y="918"/>
			<point x="424" y="1126"/>
			<point x="610" y="1126" type="curve" smooth="yes"/>
			<point x="788" y="1126"/>
			<point x="878" y="930"/>
			<point x="878" y="700" type="curve" smooth="yes"/>
			<point x="878" y="482"/>
			<point x="796" y="274"/>
		</contour>
	</outline>
</glyph>
<glyph name="two" format="2">
	<advance width="1172"/>
	<unicode hex="0032"/>
	<outline>
		<contour>
			<point x="80" y="0" type="line"/>
			<point x="1052" y="0" type="line"/>
			<point x="1052" y="300" type="line"/>
			<point x="632" y="300" type="line"/>
			<point x="900" y="560"/>
			<point x="1052" y="718"/>
			<point x="1052" y="940" type="curve" smooth="yes"/>
			<point x="1052" y="1210"/>
			<point x="834" y="1426"/>
			<point x="568" y="1426" type="curve" smooth="yes"/>
			<point x="306" y="1426"/>
			<point x="82" y="1216"/>
			<point x="82" y="940" type="curve"/>
			<point x="382" y="940" type="line"/>
			<point x="382" y="1042"/>
			<point x="466" y="1126"/>
			<point x="568" y="1126" type="curve" smooth="yes"/>
			<point x="670" y="1126"/>
			<point x="752" y="1042"/>
			<point x="752" y="940" type="curve" smooth="yes"/>
			<point x="752" y="772"/>
			<point x="266" y="384"/>
			<point x="80" y="268" type="curve"/>
		</contour>
	</outline>
</glyph>
<glyph name="four" format="2">
	<advance width="1194"/>
	<unicode hex="0034"/>
	<outline>
		<contour>
			<point x="672" y="0" type="line"/>
			<point x="972" y="0" type="line"/>
			<point x="972" y="310" type="line"/>
			<point x="1074" y="310" type="line"/>
			<point x="1074" y="610" type="line"/>
			<point x="972" y="610" type="line"/>
			<point x="972" y="1400" type="line"/>
			<point x="604" y="1400" type="line"/>
			<point x="80" y="610" type="line"/>
			<point x="80" y="310" type="line"/>
			<point x="672" y="310" type="line"/>
		</contour>
		<contour>
			<point x="426" y="610" type="line"/>
			<point x="672" y="996" type="line"/>
			<point x="672" y="610" type="line"/>
		</contour>
	</outline>
</glyph>
<glyph name="seven" format="2">
	<advance width="1116"/>
	<unicode hex="0037"/>
	<outline>
		<contour>
			<point x="94" y="0" type="line"/>
			<point x="440" y="0" type="line"/>
			<point x="1076" y="1100" type="line"/>
			<point x="1076" y="1400" type="line"/>
			<point x="40" y="1400" type="line"/>
			<point x="40" y="1100" type="line"/>
			<point x="728" y="1100" type="line"/>
		</contour>
	</outline>
</glyph>
<glyph name="nine" format="2">
	<advance width="1120"/>
	<unicode hex="0039"/>
	<outline>
		<contour>
			<point x="256" y="0" type="line"/>
			<point x="604" y="0" type="line"/>
			<point x="994" y="676" type="line" smooth="yes"/>
			<point x="1040" y="754"/>
			<point x="1060" y="840"/>
			<point x="1060" y="926" type="curve" smooth="yes"/>
			<point x="1060" y="1202"/>
			<point x="834" y="1426"/>
			<point x="562" y="1426" type="curve" smooth="yes"/>
			<point x="284" y="1426"/>
			<point x="60" y="1200"/>
			<point x="60" y="926" type="curve" smooth="yes"/>
			<point x="60" y="670"/>
			<point x="250" y="458"/>
			<point x="504" y="428" type="curve"/>
		</contour>
		<contour>
			<point x="560" y="726" type="curve" smooth="yes"/>
			<point x="446" y="726"/>
			<point x="360" y="818"/>
			<point x="360" y="928" type="curve" smooth="yes"/>
			<point x="360" y="1028"/>
			<point x="446" y="1126"/>
			<point x="562" y="1126" type="curve" smooth="yes"/>
			<point x="664" y="1126"/>
			<point x="760" y="1042"/>
			<point x="760" y="928" type="curve" smooth="yes"/>
			<point x="760" y="824"/>
			<point x="680" y="726"/>
		</contour>
	</outline>
</glyph>
<glyph name="equal" format="2">
	<advance width="1160"/>
	<unicode hex="003D"/>
	<outline>
		<contour>
			<point x="80" y="228" type="line"/>
			<point x="1080" y="228" type="line"/>
			<point x="1080" y="528" type="line"/>
			<point x="80" y="528" type="line"/>
		</contour>
		<contour>
			<point x="80" y="672" type="line"/>
			<point x="1080" y="672" type="line"/>
			<point x="1080" y="972" type="line"/>
			<point x="80" y="972" type="line"/>
		</contour>
	</outline>
</glyph>
<glyph name="C" format="2">
	<advance width="1398"/>
	<unicode hex="0043"/>
	<outline>
		<contour>
			<point x="748" y="-26" type="curve"/>
			<point x="974" y="-26"/>
			<point x="1172" y="88"/>
			<point x="1298" y="262" type="curve"/>
			<point x="1030" y="408" type="line"/>
			<point x="960" y="326"/>
			<point x="860" y="274"/>
			<point x="748" y="274" type="curve"/>
			<point x="534" y="274"/>
			<point x="360" y="466"/>
			<point x="360" y="700" type="curve"/>
			<point x="360" y="936"/>
			<point x="534" y="1126"/>
			<point x="748" y="1126" type="curve"/>
			<point x="860" y="1126"/>
			<point x="960" y="1074"/>
			<point x="1030" y="994" type="curve"/>
			<point x="1298" y="1138" type="line"/>
			<point x="1172" y="1312"/>
			<point x="974" y="1426"/>
			<point x="748" y="1426" type="curve"/>
			<point x="368" y="1426"/>
			<point x="60" y="1102"/>
			<point x="60" y="700" type="curve"/>
			<point x="60" y="300"/>
			<point x="368" y="-26"/>
		</contour>
	</outline>
</glyph>
<glyph name="H" format="2">
	<advance width="1336"/>
	<unicode hex="0048"/>
	<outline>
		<contour>
			<point x="916" y="1400" type="line"/>
			<point x="916" y="900" type="line"/>
			<point x="420" y="900" type="line"/>
			<point x="420" y="1400" type="line"/>
			<point x="120" y="1400" type="line"/>
			<point x="120" y="0" type="line"/>
			<point x="420" y="0" type="line"/>
			<point x="420" y="600" type="line"/>
			<point x="916" y="600" type="line"/>
			<point x="916" y="0" type="line"/>
			<point x="1216" y="0" type="line"/>
			<point x="1216" y="1400" type="line"/>
		</contour>
	</outline>
</glyph>
<glyph name="J" format="2">
	<advance width="934"/>
	<unicode hex="004A"/>
	<outline>
		<contour>
			<point x="342" y="-26" type="curve" smooth="yes"/>
			<point x="602" y="-26"/>
			<point x="814" y="186"/>
			<point x="814" y="446" type="curve" smooth="yes"/>
			<point x="814" y="1400" type="line"/>
			<point x="514" y="1400" type="line"/>
			<point x="514" y="446" type="line" smooth="yes"/>
			<point x="514" y="352"/>
			<point x="436" y="274"/>
			<point x="342" y="274" type="curve" smooth="yes"/>
			<point x="290" y="274"/>
			<point x="254" y="296"/>
			<point x="232" y="314" type="curve"/>
			<point x="40" y="84" type="line"/>
			<point x="124" y="12"/>
			<point x="232" y="-26"/>
		</contour>
	</outline>
</glyph>
<glyph name="M" format="2">
	<advance width="1924"/>
	<unicode hex="004D"/>
	<outline>
		<contour>
			<point x="120" y="0" type="line"/>
			<point x="426" y="0" type="line"/>
			<point x="572" y="756" type="line"/>
			<point x="858" y="0" type="line"/>
			<point x="1066" y="0" type="line"/>
			<point x="1352" y="756" type="line"/>
			<point x="1498" y="0" type="line"/>
			<point x="1804" y="0" type="line"/>
			<point x="1532" y="1400" type="line"/>
			<point x="1276" y="1400" type="line"/>
			<point x="962" y="574" type="line"/>
			<point x="648" y="1400" type="line"/>
			<point x="392" y="1400" type="line"/>
		</contour>
	</outline>
</glyph>
<glyph name="O" format="2">
	<advance width="1540"/>
	<unicode hex="004F"/>
	<outline>
		<contour>
			<point x="770" y="-26" type="curve" smooth="yes"/>
			<point x="1150" y="-26"/>
			<point x="1460" y="300"/>
			<point x="1460" y="700" type="curve" smooth="yes"/>
			<point x="1460" y="1100"/>
			<point x="1150" y="1426"/>
			<point x="770" y="1426" type="curve" smooth="yes"/>
			<point x="390" y="1426"/>
			<point x="80" y="1100"/>
			<point x="80" y="700" type="curve" smooth="yes"/>
			<point x="80" y="300"/>
			<point x="390" y="-26"/>
		</contour>
		<contour>
			<point x="770" y="274" type="curve" smooth="yes"/>
			<point x="556" y="274"/>
			<point x="380" y="466"/>
			<point x="380" y="700" type="curve" smooth="yes"/>
			<point x="380" y="934"/>
			<point x="556" y="1126"/>
			<point x="770" y="1126" type="curve" smooth="yes"/>
			<point x="984" y="1126"/>
			<point x="1160" y="934"/>
			<point x="1160" y="700" type="curve" smooth="yes"/>
			<point x="1160" y="466"/>
			<point x="984" y="274"/>
		</contour>
	</outline>
</glyph>
<glyph name="P" format="2">
	<advance width="1140"/>
	<unicode hex="0050"/>
	<outline>
		<contour>
			<point x="120" y="0" type="line"/>
			<point x="420" y="0" type="line"/>
			<point x="420" y="544" type="line"/>
			<point x="648" y="544" type="line" smooth="yes"/>
			<point x="870" y="544"/>
			<point x="1060" y="736"/>
			<point x="1060" y="972" type="curve" smooth="yes"/>
			<point x="1060" y="1204"/>
			<point x="878" y="1400"/>
			<point x="648" y="1400" type="curve" smooth="yes"/>
			<point x="120" y="1400" type="line"/>
		</contour>
		<contour>
			<point x="420" y="844" type="line"/>
			<point x="420" y="1144" type="line"/>
			<point x="614" y="1144" type="line" smooth="yes"/>
			<point x="694" y="1144"/>
			<point x="760" y="1076"/>
			<point x="760" y="994" type="curve" smooth="yes"/>
			<point x="760" y="912"/>
			<point x="694" y="844"/>
			<point x="614" y="844" type="curve" smooth="yes"/>
		</contour>
	</outline>
</glyph>
<glyph name="Q" format="2">
	<advance width="1584"/>
	<unicode hex="0051"/>
	<outline>
		<contour>
			<point x="1292" y="-52" type="line"/>
			<point x="1504" y="160" type="line"/>
			<point x="1350" y="314" type="line"/>
			<point x="1418" y="428"/>
			<point x="1460" y="562"/>
			<point x="1460" y="708" type="curve" smooth="yes"/>
			<point x="1460" y="1108"/>
			<point x="1150" y="1434"/>
			<point x="770" y="1434" type="curve" smooth="yes"/>
			<point x="390" y="1434"/>
			<point x="80" y="1108"/>
			<point x="80" y="708" type="curve" smooth="yes"/>
			<point x="80" y="306"/>
			<point x="390" y="-18"/>
			<point x="770" y="-18" type="curve" smooth="yes"/>
			<point x="908" y="-18"/>
			<point x="1036" y="24"/>
			<point x="1142" y="96" type="curve"/>
		</contour>
		<contour>
			<point x="770" y="282" type="curve" smooth="yes"/>
			<point x="556" y="282"/>
			<point x="380" y="472"/>
			<point x="380" y="708" type="curve" smooth="yes"/>
			<point x="380" y="942"/>
			<point x="556" y="1134"/>
			<point x="770" y="1134" type="curve" smooth="yes"/>
			<point x="984" y="1134"/>
			<point x="1160" y="942"/>
			<point x="1160" y="708" type="curve" smooth="yes"/>
			<point x="1160" y="648"/>
			<point x="1148" y="590"/>
			<point x="1126" y="538" type="curve"/>
			<point x="1052" y="612" type="line"/>
			<point x="840" y="400" type="line"/>
			<point x="924" y="316" type="line"/>
			<point x="876" y="294"/>
			<point x="824" y="282"/>
		</contour>
	</outline>
</glyph>
<glyph name="S" format="2">
	<advance width="1264"/>
	<unicode hex="0053"/>
	<outline>
		<contour>
			<point x="632" y="-26" type="curve" smooth="yes"/>
			<point x="918" y="-26"/>
			<point x="1164" y="150"/>
			<point x="1164" y="412" type="curve" smooth="yes"/>
			<point x="1164" y="670"/>
			<point x="920" y="808"/>
			<point x="632" y="850" type="curve" smooth="yes"/>
			<point x="506" y="868"/>
			<point x="400" y="880"/>
			<point x="400" y="988" type="curve" smooth="yes"/>
			<point x="400" y="1066"/>
			<point x="516" y="1126"/>
			<point x="632" y="1124" type="curve" smooth="yes"/>
			<point x="762" y="1124"/>
			<point x="862" y="1066"/>
			<point x="882" y="1008" type="curve"/>
			<point x="1164" y="1110" type="line"/>
			<point x="1094" y="1308"/>
			<point x="868" y="1426"/>
			<point x="632" y="1426" type="curve" smooth="yes"/>
			<point x="350" y="1426"/>
			<point x="100" y="1250"/>
			<point x="100" y="988" type="curve" smooth="yes"/>
			<point x="100" y="714"/>
			<point x="328" y="594"/>
			<point x="632" y="550" type="curve" smooth="yes"/>
			<point x="744" y="534"/>
			<point x="864" y="496"/>
			<point x="864" y="412" type="curve" smooth="yes"/>
			<point x="864" y="330"/>
			<point x="752" y="274"/>
			<point x="632" y="274" type="curve" smooth="yes"/>
			<point x="502" y="274"/>
			<point x="402" y="334"/>
			<point x="382" y="392" type="curve"/>
			<point x="100" y="288" type="line"/>
			<point x="172" y="92"/>
			<point x="396" y="-26"/>
		</contour>
	</outline>
</glyph>
<glyph name="W" format="2">
	<advance width="1960"/>
	<unicode hex="0057"/>
	<outline>
		<contour>
			<point x="458" y="0" type="line"/>
			<point x="796" y="0" type="line"/>
			<point x="980" y="726" type="line"/>
			<point x="1166" y="0" type="line"/>
			<point x="1504" y="0" type="line"/>
			<point x="1860" y="1400" type="line"/>
			<point x="1550" y="1400" type="line"/>
			<point x="1334" y="552" type="line"/>
			<point x="1118" y="1400" type="line"/>
			<point x="842" y="1400" type="line"/>
			<point x="626" y="552" type="line"/>
			<point x="410" y="1400" type="line"/>
			<point x="100" y="1400" type="line"/>
		</contour>
	</outline>
</glyph>
<glyph name="Y" format="2">
	<advance width="1392"/>
	<unicode hex="0059"/>
	<outline>
		<contour>
			<point x="978" y="1400" type="line"/>
			<point x="696" y="956" type="line"/>
			<point x="414" y="1400" type="line"/>
			<point x="60" y="1400" type="line"/>
			<point x="546" y="630" type="line"/>
			<point x="546" y="0" type="line"/>
			<point x="846" y="0" type="line"/>
			<point x="846" y="630" type="line"/>
			<point x="1332" y="1400" type="line"/>
		</contour>
	</outline>
</glyph>
<glyph name="bracketleft" format="2">
	<advance width="696"/>
	<unicode hex="005B"/>
	<outline>
		<contour>
			<point x="596" y="188" type="line"/>
			<point x="420" y="188" type="line"/>
			<point x="420" y="1100" type="line"/>
			<point x="596" y="1100" type="line"/>
			<point x="596" y="1400" type="line"/>
			<point x="120" y="1400" type="line"/>
			<point x="120" y="-112" type="line"/>
			<point x="596" y="-112" type="line"/>
		</contour>
	</outline>
</glyph>
<glyph name="asciicircum" format="2">
	<advance width="1052"/>
	<unicode hex="005E"/>
	<outline>
		<contour>
			<point x="80" y="1000" type="line"/>
			<point x="400" y="1000" type="line"/>
			<point x="526" y="1348" type="line"/>
			<point x="652" y="1000" type="line"/>
			<point x="972" y="1000" type="line"/>
			<point x="736" y="1650" type="line"/>
			<point x="316" y="1650" type="line"/>
		</contour>
	</outline>
</glyph>
<glyph name="a" format="2">
	<advance width="1270"/>
	<unicode hex="0061"/>
	<outline>
		<contour>
			<point x="850" y="1000" type="line"/>
			<point x="864" y="904" type="line"/>
			<point x="790" y="974"/>
			<point x="697" y="1028"/>
			<point x="582" y="1028" type="curve"/>
			<point x="299" y="1028"/>
			<point x="71" y="798"/>
			<point x="72" y="514" type="curve"/>
			<point x="71" y="216"/>
			<point x="312" y="-26"/>
			<point x="610" y="-26" type="curve"/>
			<point x="710" y="-26"/>
			<point x="785" y="20"/>
			<point x="835" y="90" type="curve"/>
			<point x="849" y="0" type="line"/>
			<point x="1150" y="0" type="line"/>
			<point x="1150" y="1000" type="line"/>
		</contour>
		<contour>
			<point x="619" y="262" type="curve"/>
			<point x="503" y="262"/>
			<point x="396" y="364"/>
			<point x="376" y="486" type="curve"/>
			<point x="359" y="626"/>
			<point x="453" y="738"/>
			<point x="581" y="738" type="curve"/>
			<point x="699" y="738"/>
			<point x="807" y="638"/>
			<point x="826" y="514" type="curve"/>
			<point x="843" y="376"/>
			<point x="749" y="262"/>
		</contour>
	</outline>
</glyph>
<glyph name="c" format="2">
	<advance width="1020"/>
	<unicode hex="0063"/>
	<outline>
		<contour>
			<point x="690" y="328" type="line"/>
			<point x="654" y="294"/>
			<point x="608" y="274"/>
			<point x="560" y="274" type="curve"/>
			<point x="446" y="274"/>
			<point x="360" y="382"/>
			<point x="360" y="500" type="curve"/>
			<point x="360" y="620"/>
			<point x="446" y="728"/>
			<point x="560" y="728" type="curve"/>
			<point x="608" y="728"/>
			<point x="654" y="708"/>
			<point x="690" y="672" type="curve"/>
			<point x="960" y="818" type="line"/>
			<point x="868" y="946"/>
			<point x="724" y="1028"/>
			<point x="560" y="1028" type="curve"/>
			<point x="284" y="1028"/>
			<point x="60" y="792"/>
			<point x="60" y="500" type="curve"/>
			<point x="60" y="210"/>
			<point x="284" y="-26"/>
			<point x="560" y="-26" type="curve"/>
			<point x="724" y="-26"/>
			<point x="868" y="56"/>
			<point x="960" y="182" type="curve"/>
		</contour>
	</outline>
</glyph>
<glyph name="d" format="2">
	<advance width="1240"/>
	<unicode hex="0064"/>
	<outline>
		<contour>
			<point x="840" y="1500" type="line"/>
			<point x="840" y="908" type="line"/>
			<point x="778" y="978"/>
			<point x="694" y="1026"/>
			<point x="586" y="1026" type="curve"/>
			<point x="296" y="1026"/>
			<point x="60" y="790"/>
			<point x="60" y="500" type="curve"/>
			<point x="60" y="210"/>
			<point x="296" y="-26"/>
			<point x="586" y="-26" type="curve"/>
			<point x="694" y="-26"/>
			<point x="778" y="22"/>
			<point x="840" y="92" type="curve"/>
			<point x="840" y="0" type="line"/>
			<point x="1140" y="0" type="line"/>
			<point x="1140" y="1500" type="line"/>
		</contour>
		<contour>
			<point x="590" y="262" type="curve"/>
			<point x="468" y="262"/>
			<point x="368" y="368"/>
			<point x="368" y="500" type="curve"/>
			<point x="368" y="632"/>
			<point x="468" y="738"/>
			<point x="590" y="738" type="curve"/>
			<point x="714" y="738"/>
			<point x="814" y="632"/>
			<point x="814" y="500" type="curve"/>
			<point x="814" y="368"/>
			<point x="714" y="262"/>
		</contour>
	</outline>
</glyph>
<glyph name="f" format="2">
	<advance width="762"/>
	<unicode hex="0066"/>
	<outline>
		<contour>
			<point x="444" y="1182" type="line"/>
			<point x="444" y="1206"/>
			<point x="464" y="1224"/>
			<point x="488" y="1224" type="curve"/>
			<point x="504" y="1224"/>
			<point x="523" y="1214"/>
			<point x="530" y="1194" type="curve"/>
			<point x="746" y="1406" type="line"/>
			<point x="675" y="1487"/>
			<point x="580" y="1524"/>
			<point x="488" y="1524" type="curve"/>
			<point x="298" y="1524"/>
			<point x="144" y="1370"/>
			<point x="144" y="1182" type="curve"/>
			<point x="144" y="1000" type="line"/>
			<point x="50" y="1000" type="line"/>
			<point x="50" y="700" type="line"/>
			<point x="144" y="700" type="line"/>
			<point x="144" y="0" type="line"/>
			<point x="444" y="0" type="line"/>
			<point x="444" y="700" type="line"/>
			<point x="702" y="700" type="line"/>
			<point x="702" y="1000" type="line"/>
			<point x="444" y="1000" type="line"/>
		</contour>
	</outline>
</glyph>
<glyph name="i" format="2">
	<advance width="542"/>
	<unicode hex="0069"/>
	<outline>
		<contour>
			<point x="122" y="1000" type="line"/>
			<point x="122" y="0" type="line"/>
			<point x="422" y="0" type="line"/>
			<point x="422" y="1000" type="line"/>
		</contour>
		<contour>
			<point x="270" y="1100" type="curve"/>
			<point x="354" y="1100"/>
			<point x="420" y="1166"/>
			<point x="420" y="1250" type="curve"/>
			<point x="420" y="1332"/>
			<point x="354" y="1400"/>
			<point x="270" y="1400" type="curve"/>
			<point x="188" y="1400"/>
			<point x="120" y="1332"/>
			<point x="120" y="1250" type="curve"/>
			<point x="120" y="1166"/>
			<point x="188" y="1100"/>
		</contour>
	</outline>
</glyph>
<glyph name="m" format="2">
	<advance width="1746"/>
	<unicode hex="006D"/>
	<outline>
		<contour>
			<point x="80" y="0" type="line"/>
			<point x="380" y="0" type="line"/>
			<point x="380" y="532" type="line" smooth="yes"/>
			<point x="380" y="627"/>
			<point x="457" y="703"/>
			<point x="552" y="703" type="curve" smooth="yes"/>
			<point x="646" y="703"/>
			<point x="723" y="627"/>
			<point x="723" y="532" type="curve" smooth="yes"/>
			<point x="723" y="0" type="line"/>
			<point x="1023" y="0" type="line"/>
			<point x="1023" y="532" type="line" smooth="yes"/>
			<point x="1023" y="627"/>
			<point x="1100" y="703"/>
			<point x="1194" y="703" type="curve" smooth="yes"/>
			<point x="1289" y="703"/>
			<point x="1366" y="627"/>
			<point x="1366" y="532" type="curve" smooth="yes"/>
			<point x="1366" y="0" type="line"/>
			<point x="1666" y="0" type="line"/>
			<point x="1666" y="532" type="line" smooth="yes"/>
			<point x="1666" y="792"/>
			<point x="1455" y="1003"/>
			<point x="1194" y="1003" type="curve" smooth="yes"/>
			<point x="1074" y="1003"/>
			<point x="961" y="959"/>
			<point x="873" y="877" type="curve"/>
			<point x="786" y="959"/>
			<point x="672" y="1003"/>
			<point x="552" y="1003" type="curve" smooth="yes"/>
			<point x="492" y="1003"/>
			<point x="434" y="992"/>
			<point x="380" y="951" type="curve"/>
			<point x="380" y="1000" type="line"/>
			<point x="80" y="1000" type="line"/>
		</contour>
	</outline>
</glyph>
<glyph name="s" format="2">
	<advance width="894"/>
	<unicode hex="0073"/>
	<outline>
		<contour>
			<point x="418" y="-18" type="curve" smooth="yes"/>
			<point x="630" y="-38"/>
			<point x="834" y="102"/>
			<point x="834" y="302" type="curve" smooth="yes"/>
			<point x="840" y="474"/>
			<point x="678" y="578"/>
			<point x="506" y="634" type="curve" smooth="yes"/>
			<point x="462" y="648"/>
			<point x="358" y="650"/>
			<point x="358" y="708" type="curve" smooth="yes"/>
			<point x="358" y="770"/>
			<point x="410" y="786"/>
			<point x="480" y="780" type="curve" smooth="yes"/>
			<point x="532" y="774"/>
			<point x="574" y="738"/>
			<point x="598" y="708" type="curve"/>
			<point x="834" y="848" type="line"/>
			<point x="748" y="968"/>
			<point x="610" y="1034"/>
			<point x="454" y="1034" type="curve" smooth="yes"/>
			<point x="256" y="1034"/>
			<point x="78" y="906"/>
			<point x="78" y="700" type="curve" smooth="yes"/>
			<point x="78" y="516"/>
			<point x="256" y="400"/>
			<point x="434" y="372" type="curve" smooth="yes"/>
			<point x="484" y="364"/>
			<point x="558" y="354"/>
			<point x="558" y="298" type="curve" smooth="yes"/>
			<point x="558" y="248"/>
			<point x="504" y="234"/>
			<point x="452" y="234" type="curve" smooth="yes"/>
			<point x="374" y="234"/>
			<point x="332" y="282"/>
			<point x="312" y="304" type="curve"/>
			<point x="60" y="196" type="line"/>
			<point x="124" y="66"/>
			<point x="266" y="-4"/>
		</contour>
	</outline>
</glyph>
<glyph name="u" format="2">
	<advance width="1256"/>
	<unicode hex="0075"/>
	<outline>
		<contour>
			<point x="120" y="496" type="line"/>
			<point x="122" y="206"/>
			<point x="296" y="-28"/>
			<point x="584" y="-28" type="curve"/>
			<point x="692" y="-28"/>
			<point x="774" y="22"/>
			<point x="836" y="92" type="curve"/>
			<point x="836" y="0" type="line"/>
			<point x="1136" y="0" type="line"/>
			<point x="1136" y="1000" type="line"/>
			<point x="836" y="1000" type="line"/>
			<point x="836" y="500" type="line"/>
			<point x="836" y="368"/>
			<point x="768" y="262"/>
			<point x="638" y="262" type="curve"/>
			<point x="506" y="262"/>
			<point x="420" y="368"/>
			<point x="420" y="500" type="curve"/>
			<point x="420" y="1000" type="line"/>
			<point x="120" y="1000" type="line"/>
		</contour>
	</outline>
</glyph>
<glyph name="x" format="2">
	<advance width="1262"/>
	<unicode hex="0078"/>
	<outline>
		<contour>
			<point x="80" y="0" type="line"/>
			<point x="450" y="0" type="line"/>
			<point x="630" y="248" type="line"/>
			<point x="812" y="0" type="line"/>
			<point x="1182" y="0" type="line"/>
			<point x="816" y="502" type="line"/>
			<point x="1178" y="1000" type="line"/>
			<point x="808" y="1000" type="line"/>
			<point x="630" y="758" type="line"/>
			<point x="454" y="1000" type="line"/>
			<point x="84" y="1000" type="line"/>
			<point x="446" y="502" type="line"/>
		</contour>
	</outline>
</glyph>
<glyph name="y" format="2">
	<advance width="1206"/>
	<unicode hex="0079"/>
	<outline>
		<contour>
			<point x="806" y="1000" type="line"/>
			<point x="590" y="410" type="line"/>
			<point x="408" y="1000" type="line"/>
			<point x="80" y="1000" type="line"/>
			<point x="440" y="0" type="line"/>
			<point x="260" y="-500" type="line"/>
			<point x="578" y="-500" type="line"/>
			<point x="1126" y="1000" type="line"/>
		</contour>
	</outline>
</glyph>
<glyph name="braceleft" format="2">
	<advance width="830"/>
	<unicode hex="007B"/>
	<outline>
		<contour>
			<point x="604" y="-112" type="curve" smooth="yes"/>
			<point x="730" y="-112" type="line"/>
			<point x="730" y="188" type="line"/>
			<point x="604" y="188" type="line" smooth="yes"/>
			<point x="576" y="188"/>
			<point x="554" y="210"/>
			<point x="554" y="238" type="curve" smooth="yes"/>
			<point x="554" y="494" type="line" smooth="yes"/>
			<point x="550" y="558"/>
			<point x="472" y="584"/>
			<point x="472" y="644" type="curve" smooth="yes"/>
			<point x="472" y="698"/>
			<point x="550" y="732"/>
			<point x="554" y="794" type="curve" smooth="yes"/>
			<point x="554" y="1050" type="line" smooth="yes"/>
			<point x="554" y="1078"/>
			<point x="576" y="1100"/>
			<point x="604" y="1100" type="curve" smooth="yes"/>
			<point x="730" y="1100" type="line"/>
			<point x="730" y="1400" type="line"/>
			<point x="604" y="1400" type="line" smooth="yes"/>
			<point x="410" y="1400"/>
			<point x="254" y="1242"/>
			<point x="254" y="1050" type="curve" smooth="yes"/>
			<point x="254" y="804" type="line" smooth="yes"/>
			<point x="254" y="750"/>
			<point x="120" y="720"/>
			<point x="120" y="644" type="curve" smooth="yes"/>
			<point x="120" y="560"/>
			<point x="254" y="546"/>
			<point x="254" y="482" type="curve" smooth="yes"/>
			<point x="254" y="238" type="line" smooth="yes"/>
			<point x="254" y="44"/>
			<point x="410" y="-112"/>
		</contour>
	</outline>
</glyph>
<glyph name="sterling" format="2">
	<advance width="1214"/>
	<unicode hex="00A3"/>
	<outline>
		<contour>
			<point x="104" y="0" type="line"/>
			<point x="1108" y="0" type="line"/>
			<point x="1108" y="300" type="line"/>
			<point x="648" y="300" type="line"/>
			<point x="650" y="312"/>
			<point x="658" y="346"/>
			<point x="658" y="376" type="curve" smooth="yes"/>
			<point x="658" y="619"/>
			<point x="380" y="693"/>
			<point x="380" y="900" type="curve" smooth="yes"/>
			<point x="380" y="1024"/>
			<point x="482" y="1126"/>
			<point x="606" y="1126" type="curve" smooth="yes"/>
			<point x="732" y="1126"/>
			<point x="834" y="1024"/>
			<point x="834" y="900" type="curve"/>
			<point x="1134" y="900" type="line"/>
			<point x="1134" y="1190"/>
			<point x="896" y="1426"/>
			<point x="606" y="1426" type="curve" smooth="yes"/>
			<point x="318" y="1426"/>
			<point x="80" y="1188"/>
			<point x="80" y="900" type="curve" smooth="yes"/>
			<point x="80" y="734"/>
			<point x="286" y="566"/>
			<point x="344" y="472" type="curve" smooth="yes"/>
			<point x="410" y="365"/>
			<point x="230" y="300"/>
			<point x="104" y="300" type="curve"/>
		</contour>
		<contour>
			<point x="104" y="444" type="line"/>
			<point x="884" y="444" type="line"/>
			<point x="884" y="644" type="line"/>
			<point x="104" y="644" type="line"/>
		</contour>
	</outline>
</glyph>
<glyph name="currency" format="2">
	<advance width="1050"/>
	<unicode hex="00A4"/>
	<outline>
		<contour>
			<point x="222" y="255" type="line"/>
			<point x="352" y="385" type="line"/>
			<point x="462" y="323"/>
			<point x="590" y="325"/>
			<point x="702" y="383" type="curve"/>
			<point x="830" y="255" type="line"/>
			<point x="970" y="397" type="line"/>
			<point x="842" y="525" type="line"/>
			<point x="902" y="633"/>
			<point x="902" y="767"/>
			<point x="840" y="875" type="curve"/>
			<point x="970" y="1005" type="line"/>
			<point x="830" y="1145" type="line"/>
			<point x="698" y="1015" type="line"/>
			<point x="592" y="1071"/>
			<point x="458" y="1071"/>
			<point x="354" y="1013" type="curve"/>
			<point x="222" y="1145" type="line"/>
			<point x="80" y="1005" type="line"/>
			<point x="214" y="871" type="line"/>
			<point x="154" y="765"/>
			<point x="154" y="635"/>
			<point x="212" y="529" type="curve"/>
			<point x="80" y="397" type="line"/>
		</contour>
		<contour>
			<point x="528" y="539" type="curve" smooth="yes"/>
			<point x="440" y="537"/>
			<point x="368" y="611"/>
			<point x="368" y="699" type="curve" smooth="yes"/>
			<point x="368" y="779"/>
			<point x="434" y="859"/>
			<point x="528" y="857" type="curve" smooth="yes"/>
			<point x="610" y="855"/>
			<point x="686" y="795"/>
			<point x="686" y="699" type="curve" smooth="yes"/>
			<point x="686" y="609"/>
			<point x="616" y="541"/>
		</contour>
	</outline>
</glyph>
<glyph name="yen" format="2">
	<advance width="1392"/>
	<unicode hex="00A5"/>
	<outline>
		<contour>
			<point x="546" y="0" type="line"/>
			<point x="846" y="0" type="line"/>
			<point x="846" y="124" type="line"/>
			<point x="1060" y="124" type="line"/>
			<point x="1060" y="324" type="line"/>
			<point x="846" y="324" type="line"/>
			<point x="846" y="390" type="line"/>
			<point x="1060" y="390" type="line"/>
			<point x="1060" y="590" type="line"/>
			<point x="846" y="590" type="line"/>
			<point x="846" y="630" type="line"/>
			<point x="1332" y="1400" type="line"/>
			<point x="978" y="1400" type="line"/>
			<point x="696" y="956" type="line"/>
			<point x="414" y="1400" type="line"/>
			<point x="60" y="1400" type="line"/>
			<point x="546" y="630" type="line"/>
			<point x="546" y="590" type="line"/>
			<point x="332" y="590" type="line"/>
			<point x="332" y="390" type="line"/>
			<point x="546" y="390" type="line"/>
			<point x="546" y="324" type="line"/>
			<point x="332" y="324" type="line"/>
			<point x="332" y="124" type="line"/>
			<point x="546" y="124" type="line"/>
		</contour>
	</outline>
</glyph>
<glyph name="section" format="2">
	<advance width="1116"/>
	<unicode hex="00A7"/>
	<outline>
		<contour>
			<point x="542" y="-356" type="curve" smooth="yes"/>
			<point x="740" y="-356"/>
			<point x="918" y="-228"/>
			<point x="918" y="-22" type="curve" smooth="yes"/>
			<point x="918" y="48"/>
			<point x="892" y="108"/>
			<point x="850" y="158" type="curve"/>
			<point x="940" y="242"/>
			<point x="996" y="364"/>
			<point x="996" y="500" type="curve" smooth="yes"/>
			<point x="996" y="734"/>
			<point x="840" y="918"/>
			<point x="620" y="958" type="curve" smooth="yes"/>
			<point x="572" y="966"/>
			<point x="478" y="974"/>
			<point x="478" y="1030" type="curve" smooth="yes"/>
			<point x="478" y="1092"/>
			<point x="530" y="1108"/>
			<point x="600" y="1102" type="curve" smooth="yes"/>
			<point x="652" y="1096"/>
			<point x="694" y="1060"/>
			<point x="718" y="1030" type="curve"/>
			<point x="954" y="1170" type="line"/>
			<point x="868" y="1290"/>
			<point x="730" y="1356"/>
			<point x="574" y="1356" type="curve" smooth="yes"/>
			<point x="376" y="1356"/>
			<point x="198" y="1228"/>
			<point x="198" y="1022" type="curve" smooth="yes"/>
			<point x="198" y="952"/>
			<point x="224" y="892"/>
			<point x="264" y="844" type="curve"/>
			<point x="176" y="760"/>
			<point x="120" y="636"/>
			<point x="120" y="500" type="curve" smooth="yes"/>
			<point x="120" y="288"/>
			<point x="282" y="66"/>
			<point x="490" y="44" type="curve" smooth="yes"/>
			<point x="536" y="40"/>
			<point x="638" y="28"/>
			<point x="638" y="-30" type="curve" smooth="yes"/>
			<point x="638" y="-92"/>
			<point x="586" y="-108"/>
			<point x="516" y="-102" type="curve" smooth="yes"/>
			<point x="464" y="-96"/>
			<point x="422" y="-60"/>
			<point x="398" y="-30" type="curve"/>
			<point x="162" y="-170" type="line"/>
			<point x="248" y="-290"/>
			<point x="386" y="-356"/>
		</contour>
		<contour>
			<point x="572" y="302" type="curve" smooth="yes"/>
			<point x="454" y="302"/>
			<point x="382" y="390"/>
			<point x="382" y="500" type="curve" smooth="yes"/>
			<point x="382" y="592"/>
			<point x="460" y="698"/>
			<point x="536" y="698" type="curve" smooth="yes"/>
			<point x="660" y="698"/>
			<point x="734" y="616"/>
			<point x="734" y="500" type="curve" smooth="yes"/>
			<point x="734" y="402"/>
			<point x="658" y="302"/>
		</contour>
	</outline>
</glyph>
<glyph name="copyright" format="2">
	<advance width="1962"/>
	<unicode hex="00A9"/>
	<outline>
		<contour>
			<point x="980" y="-374" type="curve" smooth="yes"/>
			<point x="1478" y="-374"/>
			<point x="1882" y="28"/>
			<point x="1882" y="526" type="curve" smooth="yes"/>
			<point x="1882" y="1026"/>
			<point x="1478" y="1426"/>
			<point x="980" y="1426" type="curve" smooth="yes"/>
			<point x="482" y="1426"/>
			<point x="80" y="1024"/>
			<point x="80" y="526" type="curve" smooth="yes"/>
			<point x="80" y="28"/>
			<point x="482" y="-374"/>
		</contour>
		<contour>
			<point x="980" y="-74" type="curve" smooth="yes"/>
			<point x="656" y="-74"/>
			<point x="380" y="186"/>
			<point x="380" y="526" type="curve" smooth="yes"/>
			<point x="380" y="850"/>
			<point x="640" y="1126"/>
			<point x="980" y="1126" type="curve" smooth="yes"/>
			<point x="1316" y="1126"/>
			<point x="1582" y="854"/>
			<point x="1582" y="526" type="curve" smooth="yes"/>
			<point x="1582" y="202"/>
			<point x="1320" y="-74"/>
		</contour>
		<component base="c" xOffset="420" yOffset="26"/>
	</outline>
</glyph>
<glyph name="registered" format="2">
	<advance width="1194"/>
	<unicode hex="00AE"/>
	<outline>
		<contour>
			<point x="596" y="364" type="curve" smooth="yes"/>
			<point x="888" y="364"/>
			<point x="1134" y="600"/>
			<point x="1134" y="902" type="curve" smooth="yes"/>
			<point x="1134" y="1192"/>
			<point x="898" y="1438"/>
			<point x="596" y="1438" type="curve" smooth="yes"/>
			<point x="300" y="1438"/>
			<point x="60" y="1198"/>
			<point x="60" y="902" type="curve" smooth="yes"/>
			<point x="60" y="604"/>
			<point x="300" y="364"/>
		</contour>
		<contour>
			<point x="596" y="574" type="curve" smooth="yes"/>
			<point x="416" y="574"/>
			<point x="270" y="720"/>
			<point x="270" y="902" type="curve" smooth="yes"/>
			<point x="270" y="1082"/>
			<point x="416" y="1228"/>
			<point x="596" y="1228" type="curve" smooth="yes"/>
			<point x="778" y="1228"/>
			<point x="924" y="1082"/>
			<point x="924" y="902" type="curve" smooth="yes"/>
			<point x="924" y="720"/>
			<point x="778" y="574"/>
		</contour>
		<contour>
			<point x="450" y="698" type="line"/>
			<point x="560" y="698" type="line"/>
			<point x="560" y="854" type="line"/>
			<point x="578" y="854" type="line"/>
			<point x="670" y="698" type="line"/>
			<point x="796" y="698" type="line"/>
			<point x="694" y="874" type="line"/>
			<point x="734" y="898"/>
			<point x="760" y="944"/>
			<point x="760" y="996" type="curve" smooth="yes"/>
			<point x="760" y="1074"/>
			<point x="700" y="1138"/>
			<point x="624" y="1138" type="curve" smooth="yes"/>
			<point x="450" y="1138" type="line"/>
		</contour>
		<contour>
			<point x="560" y="964" type="line"/>
			<point x="560" y="1028" type="line"/>
			<point x="624" y="1028" type="line" smooth="yes"/>
			<point x="638" y="1028"/>
			<point x="650" y="1014"/>
			<point x="650" y="996" type="curve" smooth="yes"/>
			<point x="650" y="978"/>
			<point x="638" y="964"/>
			<point x="624" y="964" type="curve" smooth="yes"/>
		</contour>
	</outline>
</glyph>
<glyph name="degree" format="2">
	<advance width="1026"/>
	<unicode hex="00B0"/>
	<outline>
		<contour>
			<point x="514" y="648" type="curve" smooth="yes"/>
			<point x="746" y="648"/>
			<point x="946" y="832"/>
			<point x="946" y="1080" type="curve" smooth="yes"/>
			<point x="946" y="1308"/>
			<point x="762" y="1512"/>
			<point x="514" y="1512" type="curve" smooth="yes"/>
			<point x="272" y="1512"/>
			<point x="80" y="1314"/>
			<point x="80" y="1080" type="curve" smooth="yes"/>
			<point x="80" y="852"/>
			<point x="268" y="648"/>
		</contour>
		<contour>
			<point x="514" y="948" type="curve" smooth="yes"/>
			<point x="440" y="948"/>
			<point x="380" y="1006"/>
			<point x="380" y="1080" type="curve" smooth="yes"/>
			<point x="380" y="1154"/>
			<point x="440" y="1212"/>
			<point x="514" y="1212" type="curve" smooth="yes"/>
			<point x="586" y="1212"/>
			<point x="646" y="1154"/>
			<point x="646" y="1080" type="curve" smooth="yes"/>
			<point x="646" y="1006"/>
			<point x="586" y="948"/>
		</contour>
	</outline>
</glyph>
<glyph name="uni00B3" format="2">
	<advance width="588"/>
	<unicode hex="00B3"/>
	<outline>
		<contour>
			<point x="295" y="798" type="curve" smooth="yes"/>
			<point x="415" y="798"/>
			<point x="516" y="887"/>
			<point x="516" y="1010" type="curve" smooth="yes"/>
			<point x="516" y="1060"/>
			<point x="499" y="1113"/>
			<point x="463" y="1151" type="curve"/>
			<point x="487" y="1187"/>
			<point x="499" y="1228"/>
			<point x="499" y="1271" type="curve" smooth="yes"/>
			<point x="499" y="1386"/>
			<point x="406" y="1468"/>
			<point x="290" y="1468" type="curve" smooth="yes"/>
			<point x="175" y="1468"/>
			<point x="82" y="1386"/>
			<point x="82" y="1271" type="curve"/>
			<point x="250" y="1271" type="line"/>
			<point x="250" y="1293"/>
			<point x="269" y="1312"/>
			<point x="290" y="1312" type="curve" smooth="yes"/>
			<point x="312" y="1312"/>
			<point x="331" y="1293"/>
			<point x="331" y="1271" type="curve" smooth="yes"/>
			<point x="331" y="1242"/>
			<point x="314" y="1199"/>
			<point x="238" y="1199" type="curve"/>
			<point x="238" y="1094" type="line"/>
			<point x="312" y="1094"/>
			<point x="348" y="1048"/>
			<point x="348" y="1010" type="curve" smooth="yes"/>
			<point x="348" y="978"/>
			<point x="324" y="954"/>
			<point x="295" y="954" type="curve" smooth="yes"/>
			<point x="264" y="954"/>
			<point x="240" y="978"/>
			<point x="240" y="1010" type="curve"/>
			<point x="72" y="1010" type="line"/>
			<point x="72" y="887"/>
			<point x="173" y="798"/>
		</contour>
	</outline>
</glyph>
<glyph name="paragraph" format="2">
	<advance width="1166"/>
	<unicode hex="00B6"/>
	<outline>
		<contour>
			<point x="420" y="-302" type="line"/>
			<point x="720" y="-302" type="line"/>
			<point x="720" y="1400" type="line"/>
			<point x="420" y="1400" type="line" smooth="yes"/>
			<point x="232" y="1400"/>
			<point x="80" y="1248"/>
			<point x="80" y="1060" type="curve" smooth="yes"/>
			<point x="80" y="870"/>
			<point x="232" y="718"/>
			<point x="420" y="718" type="curve"/>
		</contour>
		<contour>
			<point x="786" y="-302" type="line"/>
			<point x="1086" y="-302" type="line"/>
			<point x="1086" y="1400" type="line"/>
			<point x="786" y="1400" type="line"/>
		</contour>
	</outline>
</glyph>
<glyph name="uni00B9" format="2">
	<advance width="466"/>
	<unicode hex="00B9"/>
	<outline>
		<contour>
			<point x="154" y="818" type="line"/>
			<point x="322" y="818" type="line"/>
			<point x="322" y="1449" type="line"/>
			<point x="120" y="1449" type="line"/>
			<point x="96" y="1281" type="line"/>
			<point x="154" y="1281" type="line"/>
		</contour>
	</outline>
</glyph>
<glyph name="multiply" format="2">
	<advance width="1078"/>
	<unicode hex="00D7"/>
	<outline>
		<contour>
			<point x="292" y="140" type="line"/>
			<point x="538" y="388" type="line"/>
			<point x="786" y="140" type="line"/>
			<point x="998" y="352" type="line"/>
			<point x="750" y="600" type="line"/>
			<point x="998" y="848" type="line"/>
			<point x="786" y="1060" type="line"/>
			<point x="538" y="812" type="line"/>
			<point x="292" y="1060" type="line"/>
			<point x="80" y="848" type="line"/>
			<point x="326" y="600" type="line"/>
			<point x="80" y="352" type="line"/>
		</contour>
	</outline>
</glyph>
<glyph name="Oslash" format="2">
	<advance width="1540"/>
	<unicode hex="00D8"/>
	<outline>
		<contour>
			<point x="470" y="-122" type="line"/>
			<point x="548" y="14" type="line"/>
			<point x="618" y="-12"/>
			<point x="692" y="-26"/>
			<point x="770" y="-26" type="curve" smooth="yes"/>
			<point x="1150" y="-26"/>
			<point x="1460" y="300"/>
			<point x="1460" y="700" type="curve" smooth="yes"/>
			<point x="1460" y="906"/>
			<point x="1378" y="1092"/>
			<point x="1246" y="1226" type="curve"/>
			<point x="1332" y="1372" type="line"/>
			<point x="1072" y="1522" type="line"/>
			<point x="994" y="1388" type="line"/>
			<point x="924" y="1412"/>
			<point x="850" y="1426"/>
			<point x="770" y="1426" type="curve" smooth="yes"/>
			<point x="390" y="1426"/>
			<point x="80" y="1100"/>
			<point x="80" y="700" type="curve" smooth="yes"/>
			<point x="80" y="494"/>
			<point x="164" y="308"/>
			<point x="294" y="176" type="curve"/>
			<point x="210" y="28" type="line"/>
		</contour>
		<contour>
			<point x="454" y="452" type="line"/>
			<point x="408" y="522"/>
			<point x="380" y="608"/>
			<point x="380" y="700" type="curve" smooth="yes"/>
			<point x="380" y="934"/>
			<point x="556" y="1126"/>
			<point x="770" y="1126" type="curve" smooth="yes"/>
			<point x="794" y="1126"/>
			<point x="818" y="1124"/>
			<point x="840" y="1120" type="curve"/>
		</contour>
		<contour>
			<point x="770" y="274" type="curve" smooth="yes"/>
			<point x="748" y="274"/>
			<point x="724" y="276"/>
			<point x="702" y="282" type="curve"/>
			<point x="1088" y="948" type="line"/>
			<point x="1134" y="878"/>
			<point x="1160" y="792"/>
			<point x="1160" y="700" type="curve" smooth="yes"/>
			<point x="1160" y="466"/>
			<point x="984" y="274"/>
		</contour>
	</outline>
</glyph>
<glyph name="Thorn" format="2">
	<advance width="1140"/>
	<unicode hex="00DE"/>
	<outline>
		<contour>
			<point x="120" y="0" type="line"/>
			<point x="420" y="0" type="line"/>
			<point x="420" y="272" type="line"/>
			<point x="648" y="272" type="line" smooth="yes"/>
			<point x="870" y="272"/>
			<point x="1060" y="464"/>
			<point x="1060" y="700" type="curve" smooth="yes"/>
			<point x="1060" y="932"/>
			<point x="878" y="1128"/>
			<point x="648" y="1128" type="curve" smooth="yes"/>
			<point x="420" y="1128" type="line"/>
			<point x="420" y="1400" type="line"/>
			<point x="120" y="1400" type="line"/>
		</contour>
		<contour>
			<point x="420" y="572" type="line"/>
			<point x="420" y="872" type="line"/>
			<point x="614" y="872" type="line" smooth="yes"/>
			<point x="694" y="872"/>
			<point x="760" y="804"/>
			<point x="760" y="722" type="curve" smooth="yes"/>
			<point x="760" y="640"/>
			<point x="694" y="572"/>
			<point x="614" y="572" type="curve" smooth="yes"/>
		</contour>
	</outline>
</glyph>
<glyph name="ae" format="2">
	<advance width="1818"/>
	<unicode hex="00E6"/>
	<outline>
		<contour>
			<point x="504" y="-26" type="curve" smooth="yes"/>
			<point x="630" y="-26" type="line" smooth="yes"/>
			<point x="764" y="-26"/>
			<point x="844" y="14"/>
			<point x="930" y="102" type="curve"/>
			<point x="1018" y="22"/>
			<point x="1132" y="-26"/>
			<point x="1258" y="-26" type="curve" smooth="yes"/>
			<point x="1458" y="-26"/>
			<point x="1630" y="98"/>
			<point x="1710" y="276" type="curve"/>
			<point x="1404" y="348" type="line"/>
			<point x="1368" y="302"/>
			<point x="1316" y="274"/>
			<point x="1258" y="274" type="curve" smooth="yes"/>
			<point x="1164" y="276"/>
			<point x="1110" y="330"/>
			<point x="1082" y="402" type="curve"/>
			<point x="1748" y="402" type="line"/>
			<point x="1808" y="722"/>
			<point x="1576" y="1028"/>
			<point x="1258" y="1028" type="curve" smooth="yes"/>
			<point x="1134" y="1028"/>
			<point x="1022" y="982"/>
			<point x="934" y="904" type="curve"/>
			<point x="846" y="990"/>
			<point x="714" y="1028"/>
			<point x="552" y="1028" type="curve" smooth="yes"/>
			<point x="356" y="1028"/>
			<point x="214" y="1004"/>
			<point x="118" y="838" type="curve"/>
			<point x="376" y="686" type="line"/>
			<point x="394" y="716"/>
			<point x="416" y="756"/>
			<point x="552" y="756" type="curve" smooth="yes"/>
			<point x="664" y="756"/>
			<point x="746" y="708"/>
			<point x="762" y="622" type="curve"/>
			<point x="358" y="622" type="line" smooth="yes"/>
			<point x="198" y="622"/>
			<point x="80" y="502"/>
			<point x="80" y="344" type="curve" smooth="yes"/>
			<point x="80" y="118"/>
			<point x="220" y="-26"/>
		</contour>
		<contour>
			<point x="550" y="154" type="curve" smooth="yes"/>
			<point x="438" y="154"/>
			<point x="370" y="214"/>
			<point x="370" y="310" type="curve" smooth="yes"/>
			<point x="370" y="392"/>
			<point x="442" y="402"/>
			<point x="530" y="402" type="curve" smooth="yes"/>
			<point x="752" y="402" type="line"/>
			<point x="752" y="344" type="line" smooth="yes"/>
			<point x="752" y="246"/>
			<point x="662" y="154"/>
		</contour>
		<contour>
			<point x="1070" y="622" type="line"/>
			<point x="1098" y="708"/>
			<point x="1172" y="768"/>
			<point x="1258" y="768" type="curve" smooth="yes"/>
			<point x="1344" y="768"/>
			<point x="1416" y="708"/>
			<point x="1444" y="622" type="curve"/>
		</contour>
	</outline>
</glyph>
<glyph name="igrave" format="2">
	<advance width="590"/>
	<unicode hex="00EC"/>
	<outline>
		<contour>
			<point x="170" y="1000" type="line"/>
			<point x="170" y="0" type="line"/>
			<point x="470" y="0" type="line"/>
			<point x="470" y="1000" type="line"/>
		</contour>
		<component base="grave" xOffset="-300"/>
	</outline>
</glyph>
<glyph name="iacute" format="2">
	<advance width="590"/>
	<unicode hex="00ED"/>
	<outline>
		<contour>
			<point x="120" y="1000" type="line"/>
			<point x="120" y="0" type="line"/>
			<point x="420" y="0" type="line"/>
			<point x="420" y="1000" type="line"/>
		</contour>
		<component base="acutecomb" xOffset="-290"/>
	</outline>
</glyph>
<glyph name="eth" format="2">
	<advance width="1126"/>
	<unicode hex="00F0"/>
	<outline>
		<contour>
			<point x="440" y="1018" type="line"/>
			<point x="876" y="1450" type="line"/>
			<point x="736" y="1592" type="line"/>
			<point x="298" y="1160" type="line"/>
		</contour>
		<component base="partialdiff"/>
	</outline>
</glyph>
<glyph name="dotlessi" format="2">
	<advance width="540"/>
	<unicode hex="0131"/>
	<outline>
		<contour>
			<point x="120" y="1000" type="line"/>
			<point x="120" y="0" type="line"/>
			<point x="420" y="0" type="line"/>
			<point x="420" y="1000" type="line"/>
		</contour>
	</outline>
</glyph>
<glyph name="OE" format="2">
	<advance width="2096"/>
	<unicode hex="0152"/>
	<outline>
		<contour>
			<point x="770" y="-26" type="curve" smooth="yes"/>
			<point x="916" y="-26"/>
			<point x="1052" y="22"/>
			<point x="1164" y="104" type="curve"/>
			<point x="1164" y="0" type="line"/>
			<point x="1996" y="0" type="line"/>
			<point x="1996" y="300" type="line"/>
			<point x="1464" y="300" type="line"/>
			<point x="1464" y="550" type="line"/>
			<point x="1900" y="550" type="line"/>
			<point x="1900" y="850" type="line"/>
			<point x="1464" y="850" type="line"/>
			<point x="1464" y="1100" type="line"/>
			<point x="1996" y="1100" type="line"/>
			<point x="1996" y="1400" type="line"/>
			<point x="1164" y="1400" type="line"/>
			<point x="1164" y="1296" type="line"/>
			<point x="1052" y="1378"/>
			<point x="916" y="1426"/>
			<point x="770" y="1426" type="curve" smooth="yes"/>
			<point x="390" y="1426"/>
			<point x="80" y="1100"/>
			<point x="80" y="700" type="curve" smooth="yes"/>
			<point x="80" y="300"/>
			<point x="390" y="-26"/>
		</contour>
		<contour>
			<point x="770" y="274" type="curve" smooth="yes"/>
			<point x="556" y="274"/>
			<point x="380" y="466"/>
			<point x="380" y="700" type="curve" smooth="yes"/>
			<point x="380" y="934"/>
			<point x="556" y="1126"/>
			<point x="770" y="1126" type="curve" smooth="yes"/>
			<point x="984" y="1126"/>
			<point x="1160" y="934"/>
			<point x="1160" y="700" type="curve" smooth="yes"/>
			<point x="1160" y="466"/>
			<point x="984" y="274"/>
		</contour>
	</outline>
</glyph>
<glyph name="caron" format="2">
	<advance width="742"/>
	<unicode hex="02C7"/>
	<outline>
		<contour>
			<point x="220" y="1166" type="line"/>
			<point x="522" y="1166" type="line"/>
			<point x="622" y="1400" type="line"/>
			<point x="430" y="1400" type="line"/>
			<point x="372" y="1258" type="line"/>
			<point x="312" y="1400" type="line"/>
			<point x="120" y="1400" type="line"/>
		</contour>
	</outline>
</glyph>
<glyph name="breve" format="2">
	<advance width="1144"/>
	<unicode hex="02D8"/>
	<outline>
		<contour>
			<point x="572" y="1128" type="curve" smooth="yes"/>
			<point x="756" y="1128"/>
			<point x="904" y="1276"/>
			<point x="904" y="1460" type="curve"/>
			<point x="724" y="1460" type="line"/>
			<point x="724" y="1374"/>
			<point x="656" y="1308"/>
			<point x="572" y="1308" type="curve" smooth="yes"/>
			<point x="488" y="1308"/>
			<point x="420" y="1378"/>
			<point x="420" y="1460" type="curve"/>
			<point x="240" y="1460" type="line"/>
			<point x="240" y="1278"/>
			<point x="390" y="1128"/>
		</contour>
	</outline>
</glyph>
<glyph name="ogonek" format="2">
	<advance width="1200"/>
	<unicode hex="02DB"/>
	<outline>
		<contour>
			<point x="648" y="-446" type="curve" smooth="yes"/>
			<point x="772" y="-446" type="line"/>
			<point x="772" y="-228" type="line"/>
			<point x="644" y="-228" type="line" smooth="yes"/>
			<point x="564" y="-228"/>
			<point x="480" y="-144"/>
			<point x="480" y="-66" type="curve" smooth="yes"/>
			<point x="480" y="62" type="line"/>
			<point x="262" y="62" type="line"/>
			<point x="262" y="-62" type="line" smooth="yes"/>
			<point x="262" y="-274"/>
			<point x="434" y="-446"/>
		</contour>
	</outline>
</glyph>
<glyph name="acutecomb" format="2">
	<advance width="1180"/>
	<unicode hex="0301"/>
	<outline>
		<contour>
			<point x="480" y="1138" type="line"/>
			<point x="640" y="1138" type="line"/>
			<point x="860" y="1426" type="line"/>
			<point x="560" y="1426" type="line"/>
		</contour>
	</outline>
</glyph>
<glyph name="uni0302" format="2">
	<advance width="1302"/>
	<unicode hex="0302"/>
	<outline>
		<contour>
			<point x="500" y="1400" type="line"/>
			<point x="400" y="1166" type="line"/>
			<point x="592" y="1166" type="line"/>
			<point x="652" y="1308" type="line"/>
			<point x="710" y="1166" type="line"/>
			<point x="902" y="1166" type="line"/>
			<point x="802" y="1400" type="line"/>
		</contour>
	</outline>
</glyph>
<glyph name="uni0307" format="2">
	<advance width="1102"/>
	<unicode hex="0307"/>
	<outline>
		<contour>
			<point x="552" y="1124" type="curve" smooth="yes"/>
			<point x="636" y="1124"/>
			<point x="702" y="1188"/>
			<point x="702" y="1274" type="curve" smooth="yes"/>
			<point x="702" y="1358"/>
			<point x="636" y="1424"/>
			<point x="552" y="1424" type="curve" smooth="yes"/>
			<point x="466" y="1424"/>
			<point x="400" y="1358"/>
			<point x="400" y="1274" type="curve" smooth="yes"/>
			<point x="400" y="1188"/>
			<point x="466" y="1124"/>
		</contour>
	</outline>
</glyph>
<glyph name="uni0308" format="2">
	<advance width="1542"/>
	<unicode hex="0308"/>
	<outline>
		<contour>
			<point x="552" y="1124" type="curve" smooth="yes"/>
			<point x="636" y="1124"/>
			<point x="702" y="1188"/>
			<point x="702" y="1274" type="curve" smooth="yes"/>
			<point x="702" y="1358"/>
			<point x="636" y="1424"/>
			<point x="552" y="1424" type="curve" smooth="yes"/>
			<point x="466" y="1424"/>
			<point x="400" y="1358"/>
			<point x="400" y="1274" type="curve" smooth="yes"/>
			<point x="400" y="1188"/>
			<point x="466" y="1124"/>
		</contour>
		<contour>
			<point x="992" y="1124" type="curve" smooth="yes"/>
			<point x="1076" y="1124"/>
			<point x="1142" y="1188"/>
			<point x="1142" y="1274" type="curve" smooth="yes"/>
			<point x="1142" y="1358"/>
			<point x="1076" y="1424"/>
			<point x="992" y="1424" type="curve" smooth="yes"/>
			<point x="906" y="1424"/>
			<point x="840" y="1358"/>
			<point x="840" y="1274" type="curve" smooth="yes"/>
			<point x="840" y="1188"/>
			<point x="906" y="1124"/>
		</contour>
	</outline>
</glyph>
<glyph name="uni030A" format="2">
	<advance width="1200"/>
	<unicode hex="030A"/>
	<outline>
		<contour>
			<point x="600" y="1082" type="curve" smooth="yes"/>
			<point x="710" y="1082"/>
			<point x="800" y="1172"/>
			<point x="800" y="1284" type="curve" smooth="yes"/>
			<point x="800" y="1392"/>
			<point x="710" y="1482"/>
			<point x="600" y="1482" type="curve" smooth="yes"/>
			<point x="490" y="1482"/>
			<point x="400" y="1392"/>
			<point x="400" y="1284" type="curve" smooth="yes"/>
			<point x="400" y="1174"/>
			<point x="490" y="1082"/>
		</contour>
		<contour>
			<point x="600" y="1192" type="curve" smooth="yes"/>
			<point x="550" y="1192"/>
			<point x="510" y="1232"/>
			<point x="510" y="1284" type="curve" smooth="yes"/>
			<point x="510" y="1332"/>
			<point x="550" y="1372"/>
			<point x="600" y="1372" type="curve" smooth="yes"/>
			<point x="650" y="1372"/>
			<point x="690" y="1332"/>
			<point x="690" y="1284" type="curve" smooth="yes"/>
			<point x="690" y="1232"/>
			<point x="650" y="1192"/>
		</contour>
	</outline>
</glyph>
<glyph name="uni0327" format="2">
	<advance width="1310"/>
	<unicode hex="0327"/>
	<outline>
		<contour>
			<point x="400" y="-306" type="line"/>
			<point x="524" y="-306" type="line" smooth="yes"/>
			<point x="738" y="-306"/>
			<point x="910" y="-134"/>
			<point x="910" y="78" type="curve" smooth="yes"/>
			<point x="910" y="202" type="line"/>
			<point x="692" y="202" type="line"/>
			<point x="692" y="74" type="line" smooth="yes"/>
			<point x="692" y="-4"/>
			<point x="608" y="-88"/>
			<point x="528" y="-88" type="curve" smooth="yes"/>
			<point x="400" y="-88" type="line"/>
		</contour>
	</outline>
</glyph>
<glyph name="uni03BC" format="2">
	<advance width="1176"/>
	<unicode hex="03BC"/>
	<outline>
		<contour>
			<point x="80" y="-432" type="line"/>
			<point x="380" y="-432" type="line"/>
			<point x="380" y="0" type="line"/>
			<point x="430" y="-18"/>
			<point x="484" y="-28"/>
			<point x="544" y="-28" type="curve" smooth="yes"/>
			<point x="652" y="-28"/>
			<point x="734" y="22"/>
			<point x="796" y="92" type="curve"/>
			<point x="796" y="0" type="line"/>
			<point x="1096" y="0" type="line"/>
			<point x="1096" y="1000" type="line"/>
			<point x="796" y="1000" type="line"/>
			<point x="796" y="500" type="line" smooth="yes"/>
			<point x="796" y="368"/>
			<point x="728" y="262"/>
			<point x="598" y="262" type="curve" smooth="yes"/>
			<point x="466" y="262"/>
			<point x="380" y="368"/>
			<point x="380" y="500" type="curve" smooth="yes"/>
			<point x="380" y="1000" type="line"/>
			<point x="80" y="1000" type="line"/>
		</contour>
	</outline>
</glyph>
<glyph name="endash" format="2">
	<advance width="1240"/>
	<unicode hex="2013"/>
	<outline>
		<contour>
			<point x="120" y="750" type="line"/>
			<point x="120" y="450" type="line"/>
			<point x="1120" y="450" type="line"/>
			<point x="1120" y="750" type="line"/>
		</contour>
	</outline>
</glyph>
<glyph name="quoteright" format="2">
	<advance width="462"/>
	<unicode hex="2019"/>
	<unicode hex="2032"/>
	<outline>
		<contour>
			<point x="40" y="878" type="line"/>
			<point x="240" y="878" type="line"/>
			<point x="402" y="1400" type="line"/>
			<point x="102" y="1400" type="line"/>
		</contour>
	</outline>
</glyph>
<glyph name="daggerdbl" format="2">
	<advance width="896"/>
	<unicode hex="2021"/>
	<outline>
		<contour>
			<point x="80" y="702" type="line"/>
			<point x="298" y="702" type="line"/>
			<point x="298" y="560" type="line"/>
			<point x="598" y="560" type="line"/>
			<point x="598" y="702" type="line"/>
			<point x="816" y="702" type="line"/>
			<point x="816" y="1000" type="line"/>
			<point x="598" y="1000" type="line"/>
			<point x="598" y="1100" type="line"/>
			<point x="816" y="1100" type="line"/>
			<point x="816" y="1400" type="line"/>
			<point x="598" y="1400" type="line"/>
			<point x="598" y="1500" type="line"/>
			<point x="298" y="1500" type="line"/>
			<point x="298" y="1400" type="line"/>
			<point x="80" y="1400" type="line"/>
			<point x="80" y="1100" type="line"/>
			<point x="298" y="1100" type="line"/>
			<point x="298" y="1000" type="line"/>
			<point x="80" y="1000" type="line"/>
		</contour>
	</outline>
</glyph>
<glyph name="bullet" format="2">
	<advance width="560"/>
	<unicode hex="2022"/>
	<outline>
		<contour>
			<point x="280" y="400" type="curve" smooth="yes"/>
			<point x="390" y="400"/>
			<point x="480" y="488"/>
			<point x="480" y="600" type="curve" smooth="yes"/>
			<point x="480" y="710"/>
			<point x="390" y="800"/>
			<point x="280" y="800" type="curve" smooth="yes"/>
			<point x="168" y="800"/>
			<point x="80" y="710"/>
			<point x="80" y="600" type="curve" smooth="yes"/>
			<point x="80" y="488"/>
			<point x="168" y="400"/>
		</contour>
	</outline>
</glyph>
<glyph name="uni2035" format="2">
	<advance width="602"/>
	<unicode hex="2035"/>
	<outline>
		<contour>
			<point x="282" y="878" type="line"/>
			<point x="482" y="878" type="line"/>
			<point x="420" y="1400" type="line"/>
			<point x="120" y="1400" type="line"/>
		</contour>
	</outline>
</glyph>
<glyph name="guilsinglright" format="2">
	<advance width="820"/>
	<unicode hex="203A"/>
	<outline>
		<contour>
			<point x="100" y="261" type="line"/>
			<point x="400" y="261" type="line"/>
			<point x="700" y="601" type="line"/>
			<point x="400" y="939" type="line"/>
			<point x="100" y="939" type="line"/>
			<point x="398" y="601" type="line"/>
		</contour>
	</outline>
</glyph>
<glyph name="uni2070" format="2">
	<advance width="648"/>
	<unicode hex="2070"/>
	<outline>
		<contour>
			<point x="324" y="798" type="curve"/>
			<point x="463" y="798"/>
			<point x="576" y="942"/>
			<point x="576" y="1134" type="curve"/>
			<point x="576" y="1324"/>
			<point x="463" y="1468"/>
			<point x="324" y="1468" type="curve"/>
			<point x="185" y="1468"/>
			<point x="72" y="1324"/>
			<point x="72" y="1134" type="curve"/>
			<point x="72" y="942"/>
			<point x="185" y="798"/>
		</contour>
		<contour>
			<point x="324" y="954" type="curve"/>
			<point x="269" y="954"/>
			<point x="240" y="1055"/>
			<point x="240" y="1134" type="curve"/>
			<point x="240" y="1204"/>
			<point x="264" y="1312"/>
			<point x="324" y="1312" type="curve"/>
			<point x="377" y="1312"/>
			<point x="408" y="1209"/>
			<point x="408" y="1134" type="curve"/>
			<point x="408" y="1070"/>
			<point x="379" y="954"/>
		</contour>
	</outline>
</glyph>
<glyph name="uni2080" format="2">
	<advance width="648"/>
	<unicode hex="2080"/>
	<outline>
		<contour>
			<point x="324" y="-31" type="curve"/>
			<point x="463" y="-31"/>
			<point x="576" y="125"/>
			<point x="576" y="317" type="curve"/>
			<point x="576" y="506"/>
			<point x="463" y="662"/>
			<point x="324" y="662" type="curve"/>
			<point x="185" y="662"/>
			<point x="72" y="506"/>
			<point x="72" y="317" type="curve"/>
			<point x="72" y="125"/>
			<point x="185" y="-31"/>
		</contour>
		<contour>
			<point x="324" y="137" type="curve"/>
			<point x="269" y="137"/>
			<point x="240" y="238"/>
			<point x="240" y="317" type="curve"/>
			<point x="240" y="386"/>
			<point x="264" y="494"/>
			<point x="324" y="494" type="curve"/>
			<point x="377" y="494"/>
			<point x="408" y="391"/>
			<point x="408" y="317" type="curve"/>
			<point x="408" y="252"/>
			<point x="379" y="137"/>
		</contour>
	</outline>
</glyph>
<glyph name="uni2081" format="2">
	<advance width="466"/>
	<unicode hex="2081"/>
	<outline>
		<contour>
			<point x="154" y="0" type="line"/>
			<point x="322" y="0" type="line"/>
			<point x="322" y="631" type="line"/>
			<point x="120" y="631" type="line"/>
			<point x="96" y="463" type="line"/>
			<point x="154" y="463" type="line"/>
		</contour>
	</outline>
</glyph>
<glyph name="uni2082" format="2">
	<advance width="727"/>
	<unicode hex="2082"/>
	<outline>
		<contour>
			<point x="96" y="0" type="line"/>
			<point x="571" y="0" type="line"/>
			<point x="571" y="168" type="line"/>
			<point x="403" y="168" type="line"/>
			<point x="490" y="245"/>
			<point x="583" y="314"/>
			<point x="583" y="418" type="curve"/>
			<point x="583" y="552"/>
			<point x="475" y="662"/>
			<point x="341" y="662" type="curve"/>
			<point x="206" y="662"/>
			<point x="96" y="552"/>
			<point x="96" y="418" type="curve"/>
			<point x="264" y="418" type="line"/>
			<point x="264" y="461"/>
			<point x="298" y="494"/>
			<point x="341" y="494" type="curve"/>
			<point x="382" y="494"/>
			<point x="415" y="461"/>
			<point x="415" y="418" type="curve"/>
			<point x="343" y="281"/>
			<point x="211" y="226"/>
			<point x="96" y="146" type="curve"/>
		</contour>
	</outline>
</glyph>
<glyph name="uni2083" format="2">
	<advance width="588"/>
	<unicode hex="2083"/>
	<outline>
		<contour>
			<point x="295" y="-31" type="curve" smooth="yes"/>
			<point x="415" y="-31"/>
			<point x="516" y="70"/>
			<point x="516" y="192" type="curve" smooth="yes"/>
			<point x="516" y="242"/>
			<point x="499" y="295"/>
			<point x="463" y="334" type="curve"/>
			<point x="487" y="370"/>
			<point x="499" y="410"/>
			<point x="499" y="454" type="curve" smooth="yes"/>
			<point x="499" y="569"/>
			<point x="406" y="662"/>
			<point x="290" y="662" type="curve" smooth="yes"/>
			<point x="175" y="662"/>
			<point x="82" y="569"/>
			<point x="82" y="454" type="curve"/>
			<point x="250" y="454" type="line"/>
			<point x="250" y="475"/>
			<point x="269" y="494"/>
			<point x="290" y="494" type="curve" smooth="yes"/>
			<point x="312" y="494"/>
			<point x="331" y="475"/>
			<point x="331" y="454" type="curve" smooth="yes"/>
			<point x="331" y="425"/>
			<point x="314" y="382"/>
			<point x="238" y="382" type="curve"/>
			<point x="238" y="276" type="line"/>
			<point x="312" y="276"/>
			<point x="348" y="230"/>
			<point x="348" y="192" type="curve" smooth="yes"/>
			<point x="348" y="161"/>
			<point x="324" y="137"/>
			<point x="295" y="137" type="curve" smooth="yes"/>
			<point x="264" y="137"/>
			<point x="240" y="161"/>
			<point x="240" y="192" type="curve"/>
			<point x="72" y="192" type="line"/>
			<point x="72" y="70"/>
			<point x="173" y="-31"/>
		</contour>
	</outline>
</glyph>
<glyph name="uni2084" format="2">
	<advance width="696"/>
	<unicode hex="2084"/>
	<outline>
		<contour>
			<point x="331" y="0" type="line"/>
			<point x="499" y="0" type="line"/>
			<point x="499" y="86" type="line"/>
			<point x="552" y="86" type="line"/>
			<point x="552" y="254" type="line"/>
			<point x="499" y="254" type="line"/>
			<point x="499" y="631" type="line"/>
			<point x="314" y="631" type="line"/>
			<point x="96" y="288" type="line"/>
			<point x="96" y="86" type="line"/>
			<point x="331" y="86" type="line"/>
		</contour>
		<contour>
			<point x="259" y="254" type="line"/>
			<point x="348" y="396" type="line"/>
			<point x="348" y="254" type="line"/>
		</contour>
	</outline>
</glyph>
<glyph name="uni2089" format="2">
	<advance width="658"/>
	<unicode hex="2089"/>
	<outline>
		<contour>
			<point x="130" y="0" type="line"/>
			<point x="324" y="0" type="line"/>
			<point x="506" y="314" type="line"/>
			<point x="595" y="472"/>
			<point x="482" y="662"/>
			<point x="305" y="662" type="curve" smooth="yes"/>
			<point x="175" y="662"/>
			<point x="72" y="557"/>
			<point x="72" y="430" type="curve" smooth="yes"/>
			<point x="72" y="329"/>
			<point x="137" y="230"/>
			<point x="247" y="204" type="curve"/>
		</contour>
		<contour>
			<point x="305" y="365" type="curve" smooth="yes"/>
			<point x="281" y="365"/>
			<point x="240" y="379"/>
			<point x="240" y="427" type="curve" smooth="yes"/>
			<point x="240" y="458"/>
			<point x="262" y="494"/>
			<point x="305" y="494" type="curve" smooth="yes"/>
			<point x="336" y="494"/>
			<point x="370" y="463"/>
			<point x="370" y="432" type="curve" smooth="yes"/>
			<point x="370" y="396"/>
			<point x="341" y="365"/>
		</contour>
	</outline>
</glyph>
<glyph name="Euro" format="2">
	<advance width="1096"/>
	<unicode hex="20AC"/>
	<outline>
		<contour>
			<point x="1016" y="-16" type="curve"/>
			<point x="1016" y="294" type="line"/>
			<point x="838" y="238"/>
			<point x="668" y="308"/>
			<point x="572" y="466" type="curve"/>
			<point x="808" y="466" type="line"/>
			<point x="808" y="666" type="line"/>
			<point x="510" y="666" type="line"/>
			<point x="508" y="730" type="line"/>
			<point x="808" y="730" type="line"/>
			<point x="808" y="930" type="line"/>
			<point x="570" y="930" type="line"/>
			<point x="660" y="1084"/>
			<point x="830" y="1164"/>
			<point x="1016" y="1106" type="curve"/>
			<point x="1016" y="1416" type="line"/>
			<point x="662" y="1472"/>
			<point x="348" y="1266"/>
			<point x="244" y="930" type="curve"/>
			<point x="80" y="930" type="line"/>
			<point x="80" y="730" type="line"/>
			<point x="208" y="730" type="line"/>
			<point x="208" y="666" type="line"/>
			<point x="80" y="666" type="line"/>
			<point x="80" y="466" type="line"/>
			<point x="244" y="466" type="line"/>
			<point x="352" y="136"/>
			<point x="660" y="-72"/>
		</contour>
	</outline>
</glyph>
<glyph name="arrowleft" format="2">
	<advance width="1426"/>
	<unicode hex="2190"/>
	<outline>
		<contour>
			<point x="632" y="198" type="line"/>
			<point x="844" y="410" type="line"/>
			<point x="654" y="600" type="line"/>
			<point x="1346" y="600" type="line"/>
			<point x="1346" y="900" type="line"/>
			<point x="654" y="900" type="line"/>
			<point x="844" y="1090" type="line"/>
			<point x="632" y="1302" type="line"/>
			<point x="80" y="750" type="line"/>
		</contour>
	</outline>
</glyph>
<glyph name="arrowright" format="2">
	<advance width="1428"/>
	<unicode hex="2192"/>
	<outline>
		<contour>
			<point x="796" y="198" type="line"/>
			<point x="1348" y="750" type="line"/>
			<point x="796" y="1302" type="line"/>
			<point x="584" y="1090" type="line"/>
			<point x="772" y="900" type="line"/>
			<point x="80" y="900" type="line"/>
			<point x="80" y="600" type="line"/>
			<point x="772" y="600" type="line"/>
			<point x="584" y="410" type="line"/>
		</contour>
	</outline>
</glyph>
<glyph name="arrowdown" format="2">
	<advance width="1262"/>
	<unicode hex="2193"/>
	<outline>
		<contour>
			<point x="630" y="116" type="line"/>
			<point x="1182" y="668" type="line"/>
			<point x="970" y="880" type="line"/>
			<point x="780" y="692" type="line"/>
			<point x="780" y="1384" type="line"/>
			<point x="480" y="1384" type="line"/>
			<point x="480" y="692" type="line"/>
			<point x="292" y="880" type="line"/>
			<point x="80" y="668" type="line"/>
		</contour>
	</outline>
</glyph>
<glyph name="arrowupdn" format="2">
	<advance width="1264"/>
	<unicode hex="2195"/>
	<outline>
		<contour>
			<point x="632" y="-134" type="line"/>
			<point x="1184" y="418" type="line"/>
			<point x="972" y="630" type="line"/>
			<point x="782" y="442" type="line"/>
			<point x="782" y="1058" type="line"/>
			<point x="972" y="870" type="line"/>
			<point x="1184" y="1082" type="line"/>
			<point x="632" y="1634" type="line"/>
			<point x="80" y="1082" type="line"/>
			<point x="292" y="870" type="line"/>
			<point x="482" y="1058" type="line"/>
			<point x="482" y="442" type="line"/>
			<point x="292" y="630" type="line"/>
			<point x="80" y="418" type="line"/>
		</contour>
	</outline>
</glyph>
<glyph name="uni2196" format="2">
	<advance width="1162"/>
	<unicode hex="2196"/>
	<outline>
		<contour>
			<point x="870" y="249" type="line"/>
			<point x="1082" y="461" type="line"/>
			<point x="592" y="951" type="line"/>
			<point x="860" y="951" type="line"/>
			<point x="860" y="1251" type="line"/>
			<point x="80" y="1251" type="line"/>
			<point x="80" y="471" type="line"/>
			<point x="380" y="471" type="line"/>
			<point x="380" y="739" type="line"/>
		</contour>
	</outline>
</glyph>
<glyph name="uni2198" format="2">
	<advance width="1162"/>
	<unicode hex="2198"/>
	<outline>
		<contour>
			<point x="302" y="250" type="line"/>
			<point x="1082" y="250" type="line"/>
			<point x="1082" y="1030" type="line"/>
			<point x="782" y="1030" type="line"/>
			<point x="782" y="762" type="line"/>
			<point x="292" y="1250" type="line"/>
			<point x="80" y="1038" type="line"/>
			<point x="570" y="550" type="line"/>
			<point x="302" y="550" type="line"/>
		</contour>
	</outline>
</glyph>
<glyph name="product" format="2">
	<advance width="1280"/>
	<unicode hex="220F"/>
	<outline>
		<contour>
			<point x="80" y="1400" type="line"/>
			<point x="80" y="1100" type="line"/>
			<point x="1200" y="1100" type="line"/>
			<point x="1200" y="1400" type="line"/>
		</contour>
		<contour>
			<point x="190" y="1194" type="line"/>
			<point x="190" y="0" type="line"/>
			<point x="490" y="0" type="line"/>
			<point x="490" y="1194" type="line"/>
		</contour>
		<contour>
			<point x="790" y="1194" type="line"/>
			<point x="790" y="0" type="line"/>
			<point x="1090" y="0" type="line"/>
			<point x="1090" y="1194" type="line"/>
		</contour>
	</outline>
</glyph>
<glyph name="summation" format="2">
	<advance width="906"/>
	<unicode hex="2211"/>
	<outline>
		<contour>
			<point x="80" y="0" type="line"/>
			<point x="846" y="0" type="line"/>
			<point x="846" y="300" type="line"/>
			<point x="418" y="300" type="line"/>
			<point x="620" y="698" type="line"/>
			<point x="418" y="1096" type="line"/>
			<point x="846" y="1096" type="line"/>
			<point x="846" y="1396" type="line"/>
			<point x="80" y="1396" type="line"/>
			<point x="80" y="1096" type="line"/>
			<point x="284" y="698" type="line"/>
			<point x="80" y="300" type="line"/>
		</contour>
	</outline>
</glyph>
<glyph name="minus" format="2">
	<advance width="1160"/>
	<unicode hex="2212"/>
	<outline>
		<contour>
			<point x="80" y="450" type="line"/>
			<point x="1080" y="450" type="line"/>
			<point x="1080" y="750" type="line"/>
			<point x="80" y="750" type="line"/>
		</contour>
	</outline>
</glyph>
<glyph name="radical" format="2">
	<advance width="1378"/>
	<unicode hex="221A"/>
	<outline>
		<contour>
			<point x="918" y="1400" type="line"/>
			<point x="532" y="344" type="line"/>
			<point x="398" y="708" type="line"/>
			<point x="80" y="708" type="line"/>
			<point x="338" y="0" type="line"/>
			<point x="726" y="0" type="line"/>
			<point x="1128" y="1100" type="line"/>
			<point x="1298" y="1100" type="line"/>
			<point x="1298" y="1400" type="line"/>
		</contour>
	</outline>
</glyph>
